{
  "accessors": [
    {
      "bufferView": 3,
      "componentType": 5126,
      "count": 3153,
      "max": [
        12.34013557434082,
        168.75704956054688,
        16.939207077026367
      ],
      "min": [
        -11.020136833190918,
        124.59254455566406,
        -11.947332382202148
      ],
      "type": "VEC3"
    },
    {
      "bufferView": 3,
      "byteOffset": 37836,
      "componentType": 5126,
      "count": 3153,
      "max": [
        0.999685525894165,
        0.9999369382858276,
        0.9998427033424377
      ],
      "min": [
        -0.9996036887168884,
        -0.9999387860298157,
        -0.9999390244483948
      ],
      "type": "VEC3"
    },
    {
      "bufferView": 4,
      "componentType": 5126,
      "count": 3153,
      "max": [
        0.9999997019767761,
        0.9443944692611694,
        0.9999664425849915,
        1.0
      ],
      "min": [
        -0.9999687671661377,
        -0.946980357170105,
        -0.9990465641021729,
        -1.0
      ],
      "type": "VEC4"
    },
    {
      "bufferView": 2,
      "componentType": 5126,
      "count": 3153,
      "max": [
        0.99658203125,
        0.9978294372558594
      ],
      "min": [
        0.0018978118896484375,
        0.00146484375
      ],
      "type": "VEC2"
    },
    {
      "bufferView": 2,
      "byteOffset": 25224,
      "componentType": 5126,
      "count": 3153,
      "max": [
        12.3359375,
        11.9453125
      ],
      "min": [
        -11.015625,
        -16.9375
      ],
      "type": "VEC2"
    },
    {
      "bufferView": 1,
      "componentType": 5125,
      "count": 17130,
      "type": "SCALAR"
    },
    {
      "bufferView": 3,
      "byteOffset": 75672,
      "componentType": 5126,
      "count": 168,
      "max": [
        5.139799118041992,
        159.28359985351563,
        6.652385711669922
      ],
      "min": [
        -5.351929664611816,
        157.69349670410156,
        4.585229873657227
      ],
      "type": "VEC3"
    },
    {
      "bufferView": 3,
      "byteOffset": 77688,
      "componentType": 5126,
      "count": 168,
      "max": [
        0.7244082093238831,
        0.9435487389564514,
        0.844468891620636
      ],
      "min": [
        -0.7444128394126892,
        -0.9982349872589111,
        -0.10953180491924286
      ],
      "type": "VEC3"
    },
    {
      "bufferView": 2,
      "byteOffset": 50448,
      "componentType": 5126,
      "count": 168,
      "max": [
        0.9892578125,
        0.981842041015625
      ],
      "min": [
        0.00820159912109375,
        0.0146484375
      ],
      "type": "VEC2"
    },
    {
      "bufferView": 2,
      "byteOffset": 51792,
      "componentType": 5126,
      "count": 168,
      "max": [
        5.13671875,
        -4.58203125
      ],
      "min": [
        -5.3515625,
        -6.65234375
      ],
      "type": "VEC2"
    },
    {
      "bufferView": 1,
      "byteOffset": 68520,
      "componentType": 5125,
      "count": 660,
      "type": "SCALAR"
    },
    {
      "bufferView": 3,
      "byteOffset": 79704,
      "componentType": 5126,
      "count": 10289,
      "max": [
        42.54298400878906,
        143.8439178466797,
        21.570404052734375
      ],
      "min": [
        -42.54299545288086,
        -0.07800896465778351,
        -31.385473251342773
      ],
      "type": "VEC3"
    },
    {
      "bufferView": 3,
      "byteOffset": 203172,
      "componentType": 5126,
      "count": 10289,
      "max": [
        0.9999686479568481,
        0.9989311695098877,
        0.9998739957809448
      ],
      "min": [
        -0.9999697208404541,
        -0.9999387860298157,
        -0.9997559785842896
      ],
      "type": "VEC3"
    },
    {
      "bufferView": 4,
      "byteOffset": 50448,
      "componentType": 5126,
      "count": 10289,
      "max": [
        0.999999463558197,
        0.9989235401153564,
        0.9999245405197144,
        1.0
      ],
      "min": [
        -0.9999694228172302,
        -0.9996097087860107,
        -0.9996720552444458,
        -1.0
      ],
      "type": "VEC4"
    },
    {
      "bufferView": 2,
      "byteOffset": 53136,
      "componentType": 5126,
      "count": 10289,
      "max": [
        0.99951171875,
        0.9994029998779297
      ],
      "min": [
        0.0005536079406738281,
        0.00048828125
      ],
      "type": "VEC2"
    },
    {
      "bufferView": 2,
      "byteOffset": 135448,
      "componentType": 5126,
      "count": 10289,
      "max": [
        42.53125,
        31.375
      ],
      "min": [
        -42.53125,
        -21.5625
      ],
      "type": "VEC2"
    },
    {
      "bufferView": 1,
      "byteOffset": 71160,
      "componentType": 5125,
      "count": 38562,
      "type": "SCALAR"
    },
    {
      "bufferView": 3,
      "byteOffset": 326640,
      "componentType": 5126,
      "count": 28,
      "max": [
        27.1215763092041,
        139.08912658691406,
        1.8519079685211182
      ],
      "min": [
        -27.19036102294922,
        124.3052749633789,
        -11.416617393493652
      ],
      "type": "VEC3"
    },
    {
      "bufferView": 3,
      "byteOffset": 326976,
      "componentType": 5126,
      "count": 28,
      "max": [
        0.8717812299728394,
        0.4834493398666382,
        0.9677331447601318
      ],
      "min": [
        -0.8755053281784058,
        0.11676708608865738,
        -0.9687259793281555
      ],
      "type": "VEC3"
    },
    {
      "bufferView": 2,
      "byteOffset": 217760,
      "componentType": 5126,
      "count": 28,
      "max": [
        0.4482421875,
        0.579345703125
      ],
      "min": [
        0.22265625,
        0.431640625
      ],
      "type": "VEC2"
    },
    {
      "bufferView": 2,
      "byteOffset": 217984,
      "componentType": 5126,
      "count": 28,
      "max": [
        0.9873046875,
        0.834716796875
      ],
      "min": [
        0.74169921875,
        0.74169921875
      ],
      "type": "VEC2"
    },
    {
      "bufferView": 1,
      "byteOffset": 225408,
      "componentType": 5125,
      "count": 72,
      "type": "SCALAR"
    },
    {
      "bufferView": 3,
      "byteOffset": 327312,
      "componentType": 5126,
      "count": 10,
      "max": [
        -2.5738391876220703,
        155.92025756835938,
        8.337079048156738
      ],
      "min": [
        -5.520803451538086,
        154.63746643066406,
        8.21513843536377
      ],
      "type": "VEC3"
    },
    {
      "bufferView": 3,
      "byteOffset": 327432,
      "componentType": 5126,
      "count": 10,
      "max": [
        0.079124316573143,
        -0.007862663827836514,
        0.9994660019874573
      ],
      "min": [
        -0.13370661437511444,
        -0.007939587347209454,
        0.9909897446632385
      ],
      "type": "VEC3"
    },
    {
      "bufferView": 2,
      "byteOffset": 218208,
      "componentType": 5126,
      "count": 10,
      "max": [
        0.78369140625,
        0.4931640625
      ],
      "min": [
        0.2454833984375,
        0.26171875
      ],
      "type": "VEC2"
    },
    {
      "bufferView": 1,
      "byteOffset": 225696,
      "componentType": 5125,
      "count": 24,
      "type": "SCALAR"
    },
    {
      "bufferView": 3,
      "byteOffset": 327552,
      "componentType": 5126,
      "count": 876,
      "max": [
        7.567942142486572,
        160.0806121826172,
        8.41641902923584
      ],
      "min": [
        -7.897406101226807,
        154.44708251953125,
        -6.597325801849365
      ],
      "type": "VEC3"
    },
    {
      "bufferView": 3,
      "byteOffset": 338064,
      "componentType": 5126,
      "count": 876,
      "max": [
        0.9999686479568481,
        0.9999685287475586,
        0.9999685883522034
      ],
      "min": [
        -0.9999694228172302,
        -0.9999392628669739,
        -0.9999392032623291
      ],
      "type": "VEC3"
    },
    {
      "bufferView": 4,
      "byteOffset": 215072,
      "componentType": 5126,
      "count": 876,
      "max": [
        0.9999861121177673,
        0.9999373555183411,
        0.9999696612358093,
        1.0
      ],
      "min": [
        -0.9999698996543884,
        -1.0,
        -0.9999881386756897,
        -1.0
      ],
      "type": "VEC4"
    },
    {
      "bufferView": 2,
      "byteOffset": 218288,
      "componentType": 5126,
      "count": 876,
      "max": [
        0.99853515625,
        0.9977626800537109
      ],
      "min": [
        -0.99560546875,
        0.00927734375
      ],
      "type": "VEC2"
    },
    {
      "bufferView": 1,
      "byteOffset": 225792,
      "componentType": 5125,
      "count": 2460,
      "type": "SCALAR"
    },
    {
      "bufferView": 3,
      "byteOffset": 348576,
      "componentType": 5126,
      "count": 3268,
      "max": [
        11.807929992675781,
        170.1539764404297,
        8.752913475036621
      ],
      "min": [
        -12.16214370727539,
        144.37405395507813,
        -16.752914428710938
      ],
      "type": "VEC3"
    },
    {
      "bufferView": 3,
      "byteOffset": 387792,
      "componentType": 5126,
      "count": 3268,
      "max": [
        0.9998739957809448,
        0.9999368786811829,
        0.9999368190765381
      ],
      "min": [
        -0.9995120763778687,
        -0.9998468160629272,
        -0.998144805431366
      ],
      "type": "VEC3"
    },
    {
      "bufferView": 2,
      "byteOffset": 225296,
      "componentType": 5126,
      "count": 3268,
      "max": [
        0.9970703125,
        0.999969482421875
      ],
      "min": [
        -0.00279998779296875,
        0.00048828125
      ],
      "type": "VEC2"
    },
    {
      "bufferView": 1,
      "byteOffset": 235632,
      "componentType": 5125,
      "count": 11778,
      "type": "SCALAR"
    },
    {
      "bufferView": 5,
      "componentType": 5126,
      "count": 102,
      "max": [
        1.0,
        0.009652087464928627,
        0.009999999776482582,
        0.0,
        0.009999997913837433,
        1.0,
        0.009999999776482582,
        0.0,
        0.009999990463256836,
        0.010000000707805157,
        1.0,
        0.0,
        0.9453058838844299,
        1.1740845441818237,
        1.361655831336975,
        1.0
      ],
      "min": [
        -0.009946995414793491,
        -0.00965502206236124,
        -0.009999999776482582,
        0.0,
        -0.010000001639127731,
        -0.010000001639127731,
        -0.009655014611780643,
        0.0,
        -0.009999999776482582,
        -0.010000001639127731,
        -0.009944599121809006,
        0.0,
        -1.521984577178955,
        -1.3645787239074707,
        -1.604261040687561,
        1.0
      ],
      "type": "MAT4"
    },
    {
      "bufferView": 0,
      "componentType": 5123,
      "count": 3153,
      "type": "VEC4"
    },
    {
      "bufferView": 4,
      "byteOffset": 229088,
      "componentType": 5126,
      "count": 3153,
      "max": [
        1.0,
        0.49803921580314636,
        0.2980392277240753,
        0.14901961386203766
      ],
      "min": [
        0.35686275362968445,
        0.0,
        0.0,
        0.0
      ],
      "type": "VEC4"
    },
    {
      "bufferView": 0,
      "byteOffset": 25224,
      "componentType": 5123,
      "count": 168,
      "type": "VEC4"
    },
    {
      "bufferView": 4,
      "byteOffset": 279536,
      "componentType": 5126,
      "count": 168,
      "max": [
        1.0,
        0.47843137383461,
        0.0,
        0.0
      ],
      "min": [
        0.5215686559677124,
        0.0,
        0.0,
        0.0
      ],
      "type": "VEC4"
    },
    {
      "bufferView": 0,
      "byteOffset": 26568,
      "componentType": 5123,
      "count": 10289,
      "type": "VEC4"
    },
    {
      "bufferView": 4,
      "byteOffset": 282224,
      "componentType": 5126,
      "count": 10289,
      "max": [
        1.0,
        0.49803921580314636,
        0.2862745225429535,
        0.0
      ],
      "min": [
        0.3607843220233917,
        0.0,
        0.0,
        0.0
      ],
      "type": "VEC4"
    },
    {
      "bufferView": 0,
      "byteOffset": 108880,
      "componentType": 5123,
      "count": 28,
      "type": "VEC4"
    },
    {
      "bufferView": 4,
      "byteOffset": 446848,
      "componentType": 5126,
      "count": 28,
      "max": [
        1.0,
        0.0,
        0.0,
        0.0
      ],
      "min": [
        1.0,
        0.0,
        0.0,
        0.0
      ],
      "type": "VEC4"
    },
    {
      "bufferView": 0,
      "byteOffset": 109104,
      "componentType": 5123,
      "count": 10,
      "type": "VEC4"
    },
    {
      "bufferView": 4,
      "byteOffset": 447296,
      "componentType": 5126,
      "count": 10,
      "max": [
        1.0,
        0.0,
        0.0,
        0.0
      ],
      "min": [
        1.0,
        0.0,
        0.0,
        0.0
      ],
      "type": "VEC4"
    },
    {
      "bufferView": 0,
      "byteOffset": 109184,
      "componentType": 5123,
      "count": 876,
      "type": "VEC4"
    },
    {
      "bufferView": 4,
      "byteOffset": 447456,
      "componentType": 5126,
      "count": 876,
      "max": [
        1.0,
        0.0,
        0.0,
        0.0
      ],
      "min": [
        1.0,
        0.0,
        0.0,
        0.0
      ],
      "type": "VEC4"
    },
    {
      "bufferView": 0,
      "byteOffset": 116192,
      "componentType": 5123,
      "count": 3268,
      "type": "VEC4"
    },
    {
      "bufferView": 4,
      "byteOffset": 461472,
      "componentType": 5126,
      "count": 3268,
      "max": [
        1.0,
        0.0,
        0.0,
        0.0
      ],
      "min": [
        1.0,
        0.0,
        0.0,
        0.0
      ],
      "type": "VEC4"
    }
  ],
  "asset": {
    "extras": {
      "author": "ThuysKieu2207 (https://sketchfab.com/superkhai.200)",
      "license": "CC-BY-NC-4.0 (http://creativecommons.org/licenses/by-nc/4.0/)",
      "source": "https://sketchfab.com/3d-models/rona-metro-conflict-the-origin-f121ddba29324e23af11ad17ccd971b3",
      "title": "Rona - Metro Conflict: The Origin"
    },
    "generator": "Sketchfab-17.20.0",
    "version": "2.0"
  },
  "bufferViews": [
    {
      "buffer": 0,
      "byteLength": 142336,
      "byteStride": 8,
      "name": "shortBufferViews",
      "target": 34962
    },
    {
      "buffer": 0,
      "byteLength": 282744,
      "byteOffset": 142336,
      "name": "floatBufferViews",
      "target": 34963
    },
    {
      "buffer": 0,
      "byteLength": 251440,
      "byteOffset": 425080,
      "byteStride": 8,
      "name": "floatBufferViews",
      "target": 34962
    },
    {
      "buffer": 0,
      "byteLength": 427008,
      "byteOffset": 676520,
      "byteStride": 12,
      "name": "floatBufferViews",
      "target": 34962
    },
    {
      "buffer": 0,
      "byteLength": 513760,
      "byteOffset": 1103528,
      "byteStride": 16,
      "name": "floatBufferViews",
      "target": 34962
    },
    {
      "buffer": 0,
      "byteLength": 6528,
      "byteOffset": 1617288,
      "name": "floatBufferViews"
    }
  ],
  "buffers": [
    {
      "byteLength": 1623816,
      "uri": "scene.bin"
    }
  ],
  "extensionsUsed": [
    "KHR_materials_specular"
  ],
  "images": [
    {
      "uri": "textures/MI_CH_RONA_FACE_baseColor.png"
    },
    {
      "uri": "textures/MI_CH_RONA_FACE_normal.png"
    },
    {
      "uri": "textures/MI_CH_RONA_FUR_baseColor.png"
    },
    {
      "uri": "textures/MI_CH_RONA_ULB_baseColor.png"
    },
    {
      "uri": "textures/MI_CH_RONA_ULB_normal.png"
    },
    {
      "uri": "textures/MI_UseSkill04_baseColor.png"
    },
    {
      "uri": "textures/MI_CH_RONA_LENZ_baseColor.png"
    },
    {
      "uri": "textures/MI_CH_SC01_RONA_HM_baseColor.png"
    },
    {
      "uri": "textures/MI_CH_SC01_RONA_HM_normal.png"
    },
    {
      "uri": "textures/MI_CH_SC01_RONA_HAIR_baseColor.png"
    }
  ],
  "materials": [
    {
      "doubleSided": true,
      "name": "MI_CH_RONA_FACE",
      "normalTexture": {
        "index": 1
      },
      "pbrMetallicRoughness": {
        "baseColorTexture": {
          "index": 0
        },
        "metallicFactor": 0.0,
        "roughnessFactor": 0.9329179606750063
      }
    },
    {
      "alphaCutoff": 0.06649943793227493,
      "alphaMode": "MASK",
      "doubleSided": true,
      "name": "MI_CH_RONA_FUR",
      "pbrMetallicRoughness": {
        "baseColorTexture": {
          "index": 2
        },
        "metallicFactor": 0.0
      }
    },
    {
      "doubleSided": true,
      "name": "MI_CH_RONA_ULB",
      "normalTexture": {
        "index": 4
      },
      "pbrMetallicRoughness": {
        "baseColorTexture": {
          "index": 3
        },
        "metallicFactor": 0.0,
        "roughnessFactor": 0.8369638116245353
      }
    },
    {
      "alphaCutoff": 0.4976831282573631,
      "alphaMode": "MASK",
      "doubleSided": true,
      "emissiveFactor": [
        0.6042642820938636,
        0.6042642820938636,
        0.6042642820938636
      ],
      "name": "MI_UseSkill04",
      "pbrMetallicRoughness": {
        "baseColorTexture": {
          "index": 5
        },
        "metallicFactor": 0.0,
        "roughnessFactor": 0.9232313141964772
      }
    },
    {
      "alphaCutoff": 0.15152157405271485,
      "alphaMode": "MASK",
      "doubleSided": true,
      "emissiveFactor": [
        0.5,
        0.5,
        0.5
      ],
      "name": "MI_CH_RONA_LENZ",
      "pbrMetallicRoughness": {
        "baseColorFactor": [
          0.0,
          0.4040170000000006,
          1.0,
          1.0
        ],
        "baseColorTexture": {
          "index": 6
        },
        "metallicFactor": 0.0,
        "roughnessFactor": 0.9192437434742446
      }
    },
    {
      "doubleSided": true,
      "emissiveFactor": [
        1.0,
        1.0,
        1.0
      ],
      "emissiveTexture": {
        "index": 7
      },
      "extensions": {
        "KHR_materials_specular": {
          "specularColorFactor": [
            1.0,
            1.0,
            1.0
          ],
          "specularFactor": 0.0
        }
      },
      "name": "MI_CH_SC01_RONA_HM",
      "normalTexture": {
        "index": 8
      },
      "pbrMetallicRoughness": {
        "baseColorTexture": {
          "index": 7
        },
        "metallicFactor": 0.0,
        "roughnessFactor": 0.904394677554019
      }
    },
    {
      "alphaCutoff": 0.17581361294426912,
      "alphaMode": "MASK",
      "doubleSided": true,
      "extensions": {
        "KHR_materials_specular": {
          "specularColorFactor": [
            1.0,
            1.0,
            1.0
          ],
          "specularFactor": 0.5098291477031403
        }
      },
      "name": "MI_CH_SC01_RONA_HAIR",
      "pbrMetallicRoughness": {
        "baseColorTexture": {
          "index": 9
        },
        "metallicFactor": 0.0
      }
    }
  ],
  "meshes": [
    {
      "name": "SK_CH_Rona_M.001_MI_CH_RONA_FACE_0",
      "primitives": [
        {
          "attributes": {
            "JOINTS_0": 36,
            "NORMAL": 1,
            "POSITION": 0,
            "TANGENT": 2,
            "TEXCOORD_0": 3,
            "TEXCOORD_1": 4,
            "TEXCOORD_2": 3,
            "WEIGHTS_0": 37
          },
          "indices": 5,
          "material": 0,
          "mode": 4
        }
      ]
    },
    {
      "name": "SK_CH_Rona_M.001_MI_CH_RONA_FUR_0",
      "primitives": [
        {
          "attributes": {
            "JOINTS_0": 38,
            "NORMAL": 7,
            "POSITION": 6,
            "TEXCOORD_0": 8,
            "TEXCOORD_1": 9,
            "WEIGHTS_0": 39
          },
          "indices": 10,
          "material": 1,
          "mode": 4
        }
      ]
    },
    {
      "name": "SK_CH_Rona_M.001_MI_CH_RONA_ULB_0",
      "primitives": [
        {
          "attributes": {
            "JOINTS_0": 40,
            "NORMAL": 12,
            "POSITION": 11,
            "TANGENT": 13,
            "TEXCOORD_0": 14,
            "TEXCOORD_1": 15,
            "TEXCOORD_2": 14,
            "WEIGHTS_0": 41
          },
          "indices": 16,
          "material": 2,
          "mode": 4
        }
      ]
    },
    {
      "name": "SK_CH_Rona_M.001_MI_UseSkill04_0",
      "primitives": [
        {
          "attributes": {
            "JOINTS_0": 42,
            "NORMAL": 18,
            "POSITION": 17,
            "TEXCOORD_0": 19,
            "TEXCOORD_1": 20,
            "WEIGHTS_0": 43
          },
          "indices": 21,
          "material": 3,
          "mode": 4
        }
      ]
    },
    {
      "name": "SK_CH_SC01_RONA_HM.001_MI_CH_RONA_LENZ_0",
      "primitives": [
        {
          "attributes": {
            "JOINTS_0": 44,
            "NORMAL": 23,
            "POSITION": 22,
            "TEXCOORD_0": 24,
            "WEIGHTS_0": 45
          },
          "indices": 25,
          "material": 4,
          "mode": 4
        }
      ]
    },
    {
      "name": "SK_CH_SC01_RONA_HM.001_MI_CH_SC01_RONA_HM_0",
      "primitives": [
        {
          "attributes": {
            "JOINTS_0": 46,
            "NORMAL": 27,
            "POSITION": 26,
            "TANGENT": 28,
            "TEXCOORD_0": 29,
            "TEXCOORD_1": 29,
            "WEIGHTS_0": 47
          },
          "indices": 30,
          "material": 5,
          "mode": 4
        }
      ]
    },
    {
      "name": "SK_CH_SC01_RONA_HAIR.001_MI_CH_SC01_RONA_HAIR_0",
      "primitives": [
        {
          "attributes": {
            "JOINTS_0": 48,
            "NORMAL": 32,
            "POSITION": 31,
            "TEXCOORD_0": 33,
            "TEXCOORD_1": 33,
            "WEIGHTS_0": 49
          },
          "indices": 34,
          "material": 6,
          "mode": 4
        }
      ]
    }
  ],
  "nodes": [
    {
      "children": [
        1
      ],
      "matrix": [
        1.0,
        0.0,
        0.0,
        0.0,
        0.0,
        2.220446049250313e-16,
        -1.0,
        0.0,
        0.0,
        1.0,
        2.220446049250313e-16,
        0.0,
        0.0,
        0.0,
        0.0,
        1.0
      ],
      "name": "Sketchfab_model"
    },
    {
      "children": [
        2
      ],
      "matrix": [
        0.009999999776482582,
        0.0,
        0.0,
        0.0,
        0.0,
        0.0,
        0.009999999776482582,
        0.0,
        0.0,
        -0.009999999776482582,
        0.0,
        0.0,
        0.0,
        0.0,
        0.0,
        1.0
      ],
      "name": "Rona.fbx"
    },
    {
      "children": [
        3
      ],
      "name": "RootNode"
    },
    {
      "children": [
        4
      ],
      "matrix": [
        100.0,
        0.0,
        0.0,
        0.0,
        0.0,
        -1.629206793918314e-05,
        -99.99999999999868,
        0.0,
        0.0,
        99.99999999999868,
        -1.629206793918314e-05,
        0.0,
        0.0,
        0.0,
        0.0,
        1.0
      ],
      "name": "Armature"
    },
    {
      "children": [
        5,
        108,
        109,
        110,
        111,
        113,
        114,
        116,
        107,
        112,
        115
      ],
      "name": "Object_4"
    },
    {
      "children": [
        6
      ],
      "name": "_rootJoint"
    },
    {
      "children": [
        7,
        97,
        102
      ],
      "name": "Bip001_Pelvis_01",
      "rotation": [
        -5.485435394803062e-07,
        0.7071067094802856,
        5.485434257934685e-07,
        0.7071068286895752
      ],
      "translation": [
        5.242845952302053e-16,
        3.235643930565857e-08,
        0.9453059434890747
      ]
    },
    {
      "children": [
        8
      ],
      "name": "Bip001_Spine_02",
      "rotation": [
        0.00020041491370648146,
        0.00019778333080466837,
        0.7069077491760254,
        0.7073056697845459
      ],
      "scale": [
        1.0,
        1.0,
        0.9999999403953552
      ],
      "translation": [
        -0.06348848342895508,
        0.0029994966462254524,
        -3.7590184547298122e-06
      ]
    },
    {
      "children": [
        9,
        49,
        73
      ],
      "name": "Bip001_Spine1_03",
      "rotation": [
        -1.1645071018584474e-10,
        -1.4154013031064672e-11,
        3.637973533532346e-10,
        1.0
      ],
      "scale": [
        0.9999999403953552,
        1.0,
        0.9999999403953552
      ],
      "translation": [
        0.00021194637520238757,
        0.15801095962524414,
        4.567662692522845e-09
      ]
    },
    {
      "children": [
        10
      ],
      "name": "Bip001_Neck_04",
      "rotation": [
        -6.873222446301952e-05,
        -8.217545655497815e-06,
        0.13971586525440216,
        0.990191638469696
      ],
      "scale": [
        1.0,
        1.0,
        0.9999999403953552
      ],
      "translation": [
        0.04545818269252777,
        0.2670608460903168,
        -5.294665243127383e-05
      ]
    },
    {
      "children": [
        11,
        13,
        15,
        17,
        19,
        21,
        23,
        25,
        27,
        29,
        31,
        33,
        35,
        37,
        39,
        41,
        43,
        45,
        47
      ],
      "name": "Bip001_Head_05",
      "rotation": [
        0.0012389409821480513,
        0.001201655250042677,
        0.6016000509262085,
        0.7987955808639526
      ],
      "scale": [
        1.0,
        1.0,
        0.9999999403953552
      ],
      "translation": [
        0.0022811819799244404,
        0.09105479717254639,
        -3.699472017615335e-08
      ]
    },
    {
      "children": [
        12
      ],
      "name": "FEyeBOutL_06",
      "rotation": [
        0.7071058750152588,
        0.0012177217286080122,
        0.7071057558059692,
        0.0011784633388742805
      ],
      "scale": [
        0.9999999403953552,
        0.9999999403953552,
        0.9999998807907104
      ],
      "translation": [
        0.08227183669805527,
        0.0821240171790123,
        0.0405023917555809
      ]
    },
    {
      "name": "FEyeBOutL_end_070",
      "rotation": [
        -6.776263578034403e-21,
        7.884065213396045e-25,
        1.0587911840678754e-22,
        1.0
      ],
      "translation": [
        6.938893903907228e-18,
        0.04623480886220932,
        -2.220446049250313e-16
      ]
    },
    {
      "children": [
        14
      ],
      "name": "FEyeBInL_07",
      "rotation": [
        0.7071058750152588,
        0.0012177638709545135,
        0.7071057558059692,
        0.001178421196527779
      ],
      "scale": [
        1.0,
        0.9999999403953552,
        0.9999998807907104
      ],
      "translation": [
        0.07880687713623047,
        0.09086032211780548,
        0.016472691670060158
      ]
    },
    {
      "name": "FEyeBInL_end_071",
      "rotation": [
        -3.3881317890172014e-21,
        3.638302225526208e-24,
        -1.0587911840678754e-22,
        1.0
      ],
      "translation": [
        -3.469446951953614e-18,
        0.04623480886220932,
        0.0
      ]
    },
    {
      "children": [
        16
      ],
      "name": "FEyeUpL_08",
      "rotation": [
        0.7071058750152588,
        0.0012177217286080122,
        0.7071057558059692,
        0.0011784633388742805
      ],
      "scale": [
        0.9999999403953552,
        0.9999999403953552,
        0.9999998807907104
      ],
      "translation": [
        0.06868518888950348,
        0.0838032141327858,
        0.031726591289043427
      ]
    },
    {
      "name": "FEyeUpL_end_072",
      "rotation": [
        -6.776263578034403e-21,
        7.884065213396045e-25,
        1.0587911840678754e-22,
        1.0
      ],
      "translation": [
        0.0,
        0.04623480886220932,
        0.0
      ]
    },
    {
      "children": [
        18
      ],
      "name": "FEyeDownL_09",
      "rotation": [
        0.7071058750152588,
        0.0012177217286080122,
        0.7071057558059692,
        0.0011784633388742805
      ],
      "scale": [
        0.9999999403953552,
        0.9999999403953552,
        0.9999998807907104
      ],
      "translation": [
        0.05844511464238167,
        0.08191560208797455,
        0.031732991337776184
      ]
    },
    {
      "name": "FEyeDownL_end_073",
      "rotation": [
        -6.776263578034403e-21,
        7.884065213396045e-25,
        1.0587911840678754e-22,
        1.0
      ],
      "translation": [
        6.938893903907228e-18,
        0.04623480886220932,
        0.0
      ]
    },
    {
      "children": [
        20
      ],
      "name": "FLipUpL_010",
      "rotation": [
        0.7071058750152588,
        0.0012177638709545135,
        0.7071057558059692,
        0.001178421196527779
      ],
      "scale": [
        0.9999999403953552,
        0.9999999403953552,
        1.0000001192092896
      ],
      "translation": [
        0.009637456387281418,
        0.09736577421426773,
        0.007450518198311329
      ]
    },
    {
      "name": "FLipUpL_end_074",
      "rotation": [
        3.3881317890172014e-21,
        1.58973773975035e-24,
        -1.0587911840678754e-22,
        1.0
      ],
      "translation": [
        -1.734723475976807e-18,
        0.04623480886220932,
        2.220446049250313e-16
      ]
    },
    {
      "children": [
        22
      ],
      "name": "FLipOutL_011",
      "rotation": [
        0.7071058750152588,
        0.0012177638709545135,
        0.7071057558059692,
        0.001178421196527779
      ],
      "scale": [
        0.9999999403953552,
        0.9999998211860657,
        1.0
      ],
      "translation": [
        0.0020229839719831944,
        0.08834126591682434,
        0.020303498953580856
      ]
    },
    {
      "name": "FLipOutL_end_075",
      "rotation": [
        3.3881317890172014e-21,
        -2.520315928872506e-25,
        1.401298464324817e-45,
        1.0
      ],
      "translation": [
        -3.469446951953614e-18,
        0.04623480886220932,
        0.0
      ]
    },
    {
      "children": [
        24
      ],
      "name": "FLipDownL_012",
      "rotation": [
        0.7071058750152588,
        0.0012177638709545135,
        0.7071057558059692,
        0.001178421196527779
      ],
      "scale": [
        0.9999999403953552,
        0.9999999403953552,
        1.0
      ],
      "translation": [
        -0.003122936002910137,
        0.09313195943832397,
        0.007964870892465115
      ]
    },
    {
      "name": "FLipDownL_end_076",
      "rotation": [
        0.0,
        -3.5736787401705024e-24,
        0.0,
        1.0
      ],
      "translation": [
        0.0,
        0.04623480886220932,
        -2.220446049250313e-16
      ]
    },
    {
      "children": [
        26
      ],
      "name": "FLipChin_013",
      "rotation": [
        0.7071058750152588,
        0.0012177638709545135,
        0.7071057558059692,
        0.001178421196527779
      ],
      "scale": [
        1.0,
        0.9999999403953552,
        1.0
      ],
      "translation": [
        -0.000524322094861418,
        0.04623177647590637,
        -5.6116419727914035e-05
      ]
    },
    {
      "name": "FLipChin_end_077",
      "rotation": [
        0.0,
        9.04728794979874e-26,
        0.0,
        1.0
      ],
      "translation": [
        0.0,
        0.04623480886220932,
        0.0
      ]
    },
    {
      "children": [
        28
      ],
      "name": "FEyeBInR_014",
      "rotation": [
        0.7071058750152588,
        0.0012177638709545135,
        0.7071057558059692,
        0.001178421196527779
      ],
      "scale": [
        1.0,
        0.9999999403953552,
        0.9999998807907104
      ],
      "translation": [
        0.07880686223506927,
        0.09074511379003525,
        -0.017527008429169655
      ]
    },
    {
      "name": "FEyeBInR_end_078",
      "rotation": [
        -3.3881317890172014e-21,
        3.638302225526208e-24,
        -1.0587911840678754e-22,
        1.0
      ],
      "translation": [
        0.0,
        0.04623480886220932,
        0.0
      ]
    },
    {
      "children": [
        30
      ],
      "name": "FEyeBOutR_015",
      "rotation": [
        0.7071058750152588,
        0.0012177217286080122,
        0.7071057558059692,
        0.0011784633388742805
      ],
      "scale": [
        0.9999998807907104,
        0.9999998211860657,
        0.9999998807907104
      ],
      "translation": [
        0.08227193355560303,
        0.08184612542390823,
        -0.04149710759520531
      ]
    },
    {
      "name": "FEyeBOutR_end_079",
      "rotation": [
        -3.3881317890172014e-21,
        -1.247233267365112e-24,
        2.117582368135751e-22,
        1.0
      ],
      "translation": [
        0.0,
        0.04623480886220932,
        0.0
      ]
    },
    {
      "children": [
        32
      ],
      "name": "FEyeUpR_016",
      "rotation": [
        0.7071058750152588,
        0.0012177217286080122,
        0.7071057558059692,
        0.0011784633388742805
      ],
      "scale": [
        0.9999999403953552,
        0.9999999403953552,
        0.9999998807907104
      ],
      "translation": [
        0.06868100166320801,
        0.08358471095561981,
        -0.03273399919271469
      ]
    },
    {
      "name": "FEyeUpR_end_080",
      "rotation": [
        -6.776263578034403e-21,
        7.884065213396045e-25,
        1.0587911840678754e-22,
        1.0
      ],
      "translation": [
        6.938893903907228e-18,
        0.04623480886220932,
        0.0
      ]
    },
    {
      "children": [
        34
      ],
      "name": "FEyeDownR_017",
      "rotation": [
        0.7071058750152588,
        0.0012177217286080122,
        0.7071057558059692,
        0.0011784633388742805
      ],
      "scale": [
        0.9999999403953552,
        0.9999999403953552,
        0.9999998807907104
      ],
      "translation": [
        0.05844855681061745,
        0.08169721812009811,
        -0.03272760286927223
      ]
    },
    {
      "name": "FEyeDownR_end_081",
      "rotation": [
        -6.776263578034403e-21,
        7.884065213396045e-25,
        1.0587911840678754e-22,
        1.0
      ],
      "translation": [
        6.938893903907228e-18,
        0.04623480886220932,
        -2.220446049250313e-16
      ]
    },
    {
      "children": [
        36
      ],
      "name": "FLipUpR_018",
      "rotation": [
        0.7071058750152588,
        0.0012177638709545135,
        0.7071057558059692,
        0.001178421196527779
      ],
      "scale": [
        0.9999999403953552,
        0.9999998211860657,
        0.9999998807907104
      ],
      "translation": [
        0.00963745266199112,
        0.09731156378984451,
        -0.008549381978809834
      ]
    },
    {
      "name": "FLipUpR_end_082",
      "rotation": [
        -3.3881317890172014e-21,
        -3.0890026000027127e-24,
        -9.80908925027372e-45,
        1.0
      ],
      "translation": [
        1.734723475976807e-18,
        0.04623480886220932,
        0.0
      ]
    },
    {
      "children": [
        38
      ],
      "name": "FLipOutR_019",
      "rotation": [
        0.7071058750152588,
        0.0012177638709545135,
        0.7071057558059692,
        0.001178421196527779
      ],
      "scale": [
        0.9999999403953552,
        0.9999999403953552,
        1.0
      ],
      "translation": [
        0.0006335896905511618,
        0.08820276707410812,
        -0.020518599078059196
      ]
    },
    {
      "name": "FLipOutR_end_083",
      "rotation": [
        0.0,
        -3.5736787401705024e-24,
        0.0,
        1.0
      ],
      "translation": [
        0.0,
        0.04623480886220932,
        0.0
      ]
    },
    {
      "children": [
        40
      ],
      "name": "FLipDownR_020",
      "rotation": [
        0.7071058750152588,
        0.0012177638709545135,
        0.7071057558059692,
        0.001178421196527779
      ],
      "scale": [
        1.0,
        0.9999999403953552,
        1.0
      ],
      "translation": [
        -0.003122940193861723,
        0.09307437390089035,
        -0.009035029448568821
      ]
    },
    {
      "name": "FLipDownR_end_084",
      "rotation": [
        0.0,
        9.04728794979874e-26,
        0.0,
        1.0
      ],
      "translation": [
        -1.734723475976807e-18,
        0.04623480886220932,
        0.0
      ]
    },
    {
      "children": [
        42
      ],
      "name": "FEyeL_00",
      "rotation": [
        0.7071043252944946,
        0.002417553449049592,
        0.7071012854576111,
        0.0023316810838878155
      ],
      "scale": [
        0.9999999403953552,
        0.9999998211860657,
        0.9999998807907104
      ],
      "translation": [
        0.06463007628917694,
        0.06623971462249756,
        0.028556089848279953
      ]
    },
    {
      "name": "FEyeL_end_085",
      "rotation": [
        1.3552527156068805e-20,
        -3.1763735522036263e-22,
        -4.336808689942018e-19,
        1.0
      ],
      "translation": [
        0.0,
        0.04623481258749962,
        2.220446049250313e-16
      ]
    },
    {
      "children": [
        44
      ],
      "name": "FEyeR_021",
      "rotation": [
        0.7071049809455872,
        0.0006568657699972391,
        0.7071080803871155,
        -0.0005338050541467965
      ],
      "translation": [
        0.06463006138801575,
        0.06604321300983429,
        -0.02944350801408291
      ]
    },
    {
      "name": "FEyeR_end_086",
      "rotation": [
        -3.2526065174565133e-19,
        -0.0,
        0.0,
        1.0
      ],
      "translation": [
        -6.938893903907228e-18,
        0.04623480886220932,
        2.220446049250313e-16
      ]
    },
    {
      "children": [
        46
      ],
      "name": "CH_RONA_HAIR_022",
      "rotation": [
        0.7071059346199036,
        0.001191927818581462,
        0.7071056962013245,
        0.0012042572489008307
      ],
      "translation": [
        0.05065345764160156,
        0.025955507531762123,
        -0.0003076351131312549
      ]
    },
    {
      "name": "CH_RONA_HAIR_end_087",
      "rotation": [
        1.6940658945086007e-21,
        5.942129478457101e-24,
        1.0587911840678754e-22,
        1.0
      ],
      "translation": [
        0.0,
        0.04135298728942871,
        0.0
      ]
    },
    {
      "children": [
        48
      ],
      "name": "RONA_HM_023",
      "rotation": [
        0.7071059346199036,
        0.001191927818581462,
        0.7071056962013245,
        0.0012042572489008307
      ],
      "scale": [
        0.9999999403953552,
        0.9999998807907104,
        1.0
      ],
      "translation": [
        0.05065508559346199,
        -0.014044256880879402,
        -0.00017208799545187503
      ]
    },
    {
      "name": "RONA_HM_end_088",
      "rotation": [
        -1.6940658945086007e-21,
        -4.3759793108615835e-23,
        -2.117582368135751e-22,
        1.0
      ],
      "translation": [
        0.0,
        0.07481241226196289,
        0.0
      ]
    },
    {
      "children": [
        50
      ],
      "name": "Bip001_L_Clavicle_024",
      "rotation": [
        0.00024320140073541552,
        0.6078913807868958,
        0.7940201163291931,
        0.0003153502766508609
      ],
      "scale": [
        0.9999999403953552,
        1.0,
        0.9999999403953552
      ],
      "translation": [
        0.05002768337726593,
        0.23317287862300873,
        0.038201287388801575
      ]
    },
    {
      "children": [
        51
      ],
      "name": "Bip001_L_UpperArm_025",
      "rotation": [
        -0.41498133540153503,
        -0.09670514613389969,
        0.036970458924770355,
        0.9039202332496643
      ],
      "scale": [
        1.0,
        0.9999998807907104,
        1.0
      ],
      "translation": [
        -7.639471277798293e-10,
        0.11137799173593521,
        3.8256985135376453e-08
      ]
    },
    {
      "children": [
        52
      ],
      "name": "Bip001_L_Forearm_026",
      "rotation": [
        7.411449587380048e-08,
        3.011636451333288e-08,
        -0.1440349966287613,
        0.9895727038383484
      ],
      "translation": [
        3.725290298461914e-09,
        0.23910100758075714,
        7.729977369308472e-08
      ]
    },
    {
      "children": [
        53,
        57,
        61,
        65,
        69
      ],
      "name": "Bip001_L_Hand_027",
      "rotation": [
        0.0015060261357575655,
        -0.6154760718345642,
        0.06431183218955994,
        0.7855258584022522
      ],
      "scale": [
        1.0,
        0.9999999403953552,
        1.0
      ],
      "translation": [
        4.0978193283081055e-08,
        0.23325201869010925,
        2.8172507882118225e-08
      ]
    },
    {
      "children": [
        54
      ],
      "name": "Bip001_L_Finger0_028",
      "rotation": [
        -0.2953467071056366,
        0.48547109961509705,
        -0.05620463192462921,
        0.8209319114685059
      ],
      "scale": [
        1.0,
        1.0,
        0.9999998807907104
      ],
      "translation": [
        -0.013684491626918316,
        0.017895277589559555,
        -0.02255558967590332
      ]
    },
    {
      "children": [
        55
      ],
      "name": "Bip001_L_Finger01_029",
      "rotation": [
        -3.6999369967816165e-07,
        -1.7809223606946034e-07,
        0.20904704928398132,
        0.9779055714607239
      ],
      "scale": [
        0.9999998807907104,
        1.0,
        0.9999999403953552
      ],
      "translation": [
        -2.9802322387695313e-08,
        0.04238171875476837,
        -7.078051567077637e-08
      ]
    },
    {
      "children": [
        56
      ],
      "name": "Bip001_L_Finger02_030",
      "rotation": [
        5.244823455541336e-07,
        9.243119336588279e-08,
        0.14140376448631287,
        0.989952027797699
      ],
      "scale": [
        0.9999999403953552,
        1.0,
        0.9999999403953552
      ],
      "translation": [
        4.470348358154297e-08,
        0.022429756820201874,
        1.30385160446167e-08
      ]
    },
    {
      "name": "Bip001_L_Finger02_end_089",
      "rotation": [
        -2.42861286636753e-17,
        -0.0,
        0.0,
        1.0
      ],
      "translation": [
        2.7755575615628914e-17,
        0.026715073734521866,
        0.0
      ]
    },
    {
      "children": [
        58
      ],
      "name": "Bip001_L_Finger1_031",
      "rotation": [
        -0.014672859571874142,
        0.010194678790867329,
        0.09490622580051422,
        0.9953258633613586
      ],
      "scale": [
        0.9999999403953552,
        0.9999999403953552,
        0.9999998807907104
      ],
      "translation": [
        0.01155867613852024,
        0.08286473900079727,
        -0.027592476457357407
      ]
    },
    {
      "children": [
        59
      ],
      "name": "Bip001_L_Finger11_032",
      "rotation": [
        1.9348887292380823e-07,
        4.391340979736924e-08,
        0.12509667873382568,
        0.9921445846557617
      ],
      "scale": [
        1.0,
        0.9999998807907104,
        0.9999998211860657
      ],
      "translation": [
        -1.0151416063308716e-07,
        0.03836004436016083,
        -5.21540641784668e-08
      ]
    },
    {
      "children": [
        60
      ],
      "name": "Bip001_L_Finger12_033",
      "rotation": [
        -9.004954648617058e-08,
        1.0218770540859623e-07,
        0.22880496084690094,
        0.9734722971916199
      ],
      "scale": [
        1.0,
        1.0000001192092896,
        1.0
      ],
      "translation": [
        -9.872019290924072e-08,
        0.01888524368405342,
        4.470348358154297e-08
      ]
    },
    {
      "name": "Bip001_L_Finger12_end_090",
      "rotation": [
        1.925929944387236e-34,
        1.3877787807814457e-17,
        -1.3877787807814457e-17,
        1.0
      ],
      "translation": [
        3.469446951953614e-17,
        0.0223013274371624,
        2.7755575615628914e-17
      ]
    },
    {
      "children": [
        62
      ],
      "name": "Bip001_L_Finger2_034",
      "rotation": [
        0.04808150231838226,
        -0.085391566157341,
        0.1166679635643959,
        0.9883244633674622
      ],
      "scale": [
        1.0,
        1.0,
        0.9999999403953552
      ],
      "translation": [
        0.010980120860040188,
        0.08396090567111969,
        -0.004475094377994537
      ]
    },
    {
      "children": [
        63
      ],
      "name": "Bip001_L_Finger21_035",
      "rotation": [
        -0.000240969835431315,
        0.0021520303562283516,
        0.174269437789917,
        0.9846956133842468
      ],
      "scale": [
        0.9999999403953552,
        0.9999998211860657,
        1.0
      ],
      "translation": [
        -2.7474015951156616e-08,
        0.04001669958233833,
        3.725290298461914e-09
      ]
    },
    {
      "children": [
        64
      ],
      "name": "Bip001_L_Finger22_036",
      "rotation": [
        -0.0035109971649944782,
        -0.014295054599642754,
        0.3256085216999054,
        0.9453901052474976
      ],
      "scale": [
        1.0,
        1.0,
        0.9999998807907104
      ],
      "translation": [
        7.916241884231567e-09,
        0.023181097581982613,
        -1.4901161193847656e-08
      ]
    },
    {
      "name": "Bip001_L_Finger22_end_091",
      "rotation": [
        6.921310737641629e-34,
        -1.3877787807814457e-17,
        4.9873299934333204e-17,
        1.0
      ],
      "translation": [
        -5.551115123125783e-17,
        0.02501252479851246,
        0.0
      ]
    },
    {
      "children": [
        66
      ],
      "name": "Bip001_L_Finger3_037",
      "rotation": [
        0.0927712693810463,
        -0.09615331143140793,
        0.1859271228313446,
        0.9734367728233337
      ],
      "translation": [
        0.006117500364780426,
        0.07768245786428452,
        0.014390112832188606
      ]
    },
    {
      "children": [
        67
      ],
      "name": "Bip001_L_Finger31_038",
      "rotation": [
        -7.513332178632481e-08,
        9.556745084182694e-08,
        0.20635074377059937,
        0.978478193283081
      ],
      "scale": [
        0.9999998807907104,
        1.0,
        0.9999999403953552
      ],
      "translation": [
        9.080395102500916e-09,
        0.03433718532323837,
        -1.862645149230957e-08
      ]
    },
    {
      "children": [
        68
      ],
      "name": "Bip001_L_Finger32_039",
      "rotation": [
        2.3027164175459802e-08,
        1.3620324068597256e-07,
        0.31088918447494507,
        0.9504461884498596
      ],
      "scale": [
        0.9999999403953552,
        1.0,
        0.9999999403953552
      ],
      "translation": [
        1.0360963642597198e-08,
        0.02250409685075283,
        -1.1175870895385742e-08
      ]
    },
    {
      "name": "Bip001_L_Finger32_end_092",
      "rotation": [
        -2.787332204669808e-34,
        -5.204170427930421e-18,
        -5.355958732078392e-17,
        1.0
      ],
      "translation": [
        -1.1102230246251565e-16,
        0.023170098662376404,
        0.0
      ]
    },
    {
      "children": [
        70
      ],
      "name": "Bip001_L_Finger4_040",
      "rotation": [
        0.16966815292835236,
        -0.15706311166286469,
        0.2242259979248047,
        0.9467135667800903
      ],
      "scale": [
        0.9999999403953552,
        1.0,
        1.0
      ],
      "translation": [
        -0.0022319206036627293,
        0.06952693313360214,
        0.031248196959495544
      ]
    },
    {
      "children": [
        71
      ],
      "name": "Bip001_L_Finger41_041",
      "rotation": [
        -0.004998900927603245,
        0.00026412776787765324,
        0.1443634331226349,
        0.9895120859146118
      ],
      "scale": [
        1.0,
        1.0000001192092896,
        1.0
      ],
      "translation": [
        -6.657501772089347e-10,
        0.027371017262339592,
        9.538780432194471e-09
      ]
    },
    {
      "children": [
        72
      ],
      "name": "Bip001_L_Finger42_042",
      "rotation": [
        -3.4943820281796434e-08,
        8.137601525959326e-08,
        0.23165516555309296,
        0.9727979898452759
      ],
      "scale": [
        0.9999999403953552,
        0.9999998807907104,
        1.0
      ],
      "translation": [
        5.976471584290266e-08,
        0.01652359403669834,
        9.70612745732069e-09
      ]
    },
    {
      "name": "Bip001_L_Finger42_end_093",
      "rotation": [
        -1.781485198558193e-33,
        -2.7755575615628914e-17,
        -6.418476861114186e-17,
        1.0
      ],
      "translation": [
        -1.1102230246251565e-16,
        0.01843707449734211,
        1.5612511283791264e-17
      ]
    },
    {
      "children": [
        74
      ],
      "name": "Bip001_R_Clavicle_043",
      "rotation": [
        -0.0002409537701169029,
        -0.607891321182251,
        0.7940201163291931,
        0.000316920893965289
      ],
      "scale": [
        0.9999999403953552,
        1.0000003576278687,
        1.0
      ],
      "translation": [
        0.05002746731042862,
        0.23317283391952515,
        -0.038277991116046906
      ]
    },
    {
      "children": [
        75
      ],
      "name": "Bip001_R_UpperArm_044",
      "rotation": [
        0.41548997163772583,
        0.09668496251106262,
        0.037025704979896545,
        0.9036864638328552
      ],
      "scale": [
        0.9999999403953552,
        1.0000001192092896,
        1.0000001192092896
      ],
      "translation": [
        9.54571532929549e-10,
        0.1113780066370964,
        1.9312574295327067e-07
      ]
    },
    {
      "children": [
        76
      ],
      "name": "Bip001_R_Forearm_045",
      "rotation": [
        -8.499637260683812e-08,
        1.6289077791619452e-15,
        -0.14403501152992249,
        0.9895725846290588
      ],
      "translation": [
        7.450580596923828e-09,
        0.2391008585691452,
        2.60770320892334e-08
      ]
    },
    {
      "children": [
        77,
        81,
        85,
        89,
        93
      ],
      "name": "Bip001_R_Hand_046",
      "rotation": [
        -0.0015059571014717221,
        0.6154759526252747,
        0.06431194394826889,
        0.7855259776115417
      ],
      "scale": [
        1.0000001192092896,
        1.0,
        1.0000001192092896
      ],
      "translation": [
        1.6763806343078613e-08,
        0.23325194418430328,
        -5.51808625459671e-08
      ]
    },
    {
      "children": [
        78
      ],
      "name": "Bip001_R_Finger0_047",
      "rotation": [
        0.29534685611724854,
        -0.4854709506034851,
        -0.05620473623275757,
        0.8209319114685059
      ],
      "scale": [
        0.9999999403953552,
        0.9999998807907104,
        0.9999997615814209
      ],
      "translation": [
        -0.013684525154531002,
        0.017895348370075226,
        0.022555585950613022
      ]
    },
    {
      "children": [
        79
      ],
      "name": "Bip001_R_Finger01_048",
      "rotation": [
        -2.5999551667155174e-07,
        -1.9047288191131884e-08,
        0.20904681086540222,
        0.9779056310653687
      ],
      "scale": [
        1.0000001192092896,
        1.0,
        1.0
      ],
      "translation": [
        -3.725290298461914e-08,
        0.04238174110651016,
        3.3527612686157227e-08
      ]
    },
    {
      "children": [
        80
      ],
      "name": "Bip001_R_Finger02_049",
      "rotation": [
        4.986111434845952e-07,
        -3.6572650685684494e-08,
        0.14140407741069794,
        0.9899519681930542
      ],
      "scale": [
        0.9999998807907104,
        0.9999998211860657,
        0.9999998807907104
      ],
      "translation": [
        -3.725290298461914e-08,
        0.022429656237363815,
        -3.725290298461914e-09
      ]
    },
    {
      "name": "Bip001_R_Finger02_end_094",
      "rotation": [
        1.925929944387236e-34,
        -2.7755575615628914e-17,
        6.938893903907228e-18,
        1.0
      ],
      "translation": [
        -2.7755575615628914e-17,
        0.026714958250522614,
        -5.551115123125783e-17
      ]
    },
    {
      "children": [
        82
      ],
      "name": "Bip001_R_Finger1_050",
      "rotation": [
        0.014672779478132725,
        -0.010194762609899044,
        0.09490608423948288,
        0.9953258633613586
      ],
      "scale": [
        0.9999998211860657,
        0.9999999403953552,
        0.9999997615814209
      ],
      "translation": [
        0.011558561585843563,
        0.08286475390195847,
        0.027592480182647705
      ]
    },
    {
      "children": [
        83
      ],
      "name": "Bip001_R_Finger11_051",
      "rotation": [
        -1.912593994291001e-08,
        2.989161984601196e-08,
        0.1250973790884018,
        0.9921444654464722
      ],
      "translation": [
        6.05359673500061e-08,
        0.038360051810741425,
        3.725290298461914e-08
      ]
    },
    {
      "children": [
        84
      ],
      "name": "Bip001_R_Finger12_052",
      "rotation": [
        1.4972384576594777e-07,
        -5.5877361404554904e-08,
        0.22880469262599945,
        0.9734723567962646
      ],
      "scale": [
        1.0,
        0.9999999403953552,
        1.0
      ],
      "translation": [
        1.387670636177063e-07,
        0.01888515241444111,
        1.4901161193847656e-08
      ]
    },
    {
      "name": "Bip001_R_Finger12_end_095",
      "rotation": [
        -2.7755575615628914e-17,
        1.3877787807814457e-17,
        -5.898059818321144e-17,
        1.0
      ],
      "translation": [
        -1.3877787807814457e-17,
        0.022301405668258667,
        0.0
      ]
    },
    {
      "children": [
        86
      ],
      "name": "Bip001_R_Finger2_053",
      "rotation": [
        -0.048081472516059875,
        0.08539151400327682,
        0.11666778475046158,
        0.9883244037628174
      ],
      "scale": [
        0.9999999403953552,
        0.9999999403953552,
        0.9999998807907104
      ],
      "translation": [
        0.010980055667459965,
        0.08396086096763611,
        0.004475105553865433
      ]
    },
    {
      "children": [
        87
      ],
      "name": "Bip001_R_Finger21_054",
      "rotation": [
        0.00024098713765852153,
        -0.002151976805180311,
        0.17426902055740356,
        0.9846957921981812
      ],
      "scale": [
        0.9999999403953552,
        1.0,
        1.0
      ],
      "translation": [
        5.3318217396736145e-08,
        0.04001656919717789,
        1.1175870895385742e-08
      ]
    },
    {
      "children": [
        88
      ],
      "name": "Bip001_R_Finger22_055",
      "rotation": [
        0.00351085071451962,
        0.014295017346739769,
        0.3256087005138397,
        0.9453900456428528
      ],
      "scale": [
        1.0000001192092896,
        1.0,
        1.0
      ],
      "translation": [
        -1.0780058801174164e-07,
        0.023181114345788956,
        5.587935447692871e-09
      ]
    },
    {
      "name": "Bip001_R_Finger22_end_096",
      "rotation": [
        -2.7755575615628914e-17,
        3.469446951953614e-18,
        1.3877787807814457e-17,
        1.0
      ],
      "translation": [
        -5.551115123125783e-17,
        0.025012601166963577,
        2.7755575615628914e-17
      ]
    },
    {
      "children": [
        90
      ],
      "name": "Bip001_R_Finger3_056",
      "rotation": [
        -0.09277115762233734,
        0.09615331143140793,
        0.18592709302902222,
        0.9734367728233337
      ],
      "scale": [
        1.0,
        1.0,
        0.9999998807907104
      ],
      "translation": [
        0.006117577664554119,
        0.07768235355615616,
        -0.014390096068382263
      ]
    },
    {
      "children": [
        91
      ],
      "name": "Bip001_R_Finger31_057",
      "rotation": [
        -2.4449555269256962e-08,
        3.5811755338954754e-08,
        0.2063511162996292,
        0.9784780144691467
      ],
      "scale": [
        1.0,
        1.0,
        0.9999999403953552
      ],
      "translation": [
        2.1420419216156006e-08,
        0.03433724865317345,
        1.862645149230957e-09
      ]
    },
    {
      "children": [
        92
      ],
      "name": "Bip001_R_Finger32_058",
      "rotation": [
        4.360463279340365e-08,
        -9.039388260134729e-08,
        0.31088900566101074,
        0.9504462480545044
      ],
      "scale": [
        0.9999998807907104,
        0.9999998807907104,
        0.9999999403953552
      ],
      "translation": [
        -5.0407834351062775e-08,
        0.022504035383462906,
        9.313225746154785e-09
      ]
    },
    {
      "name": "Bip001_R_Finger32_end_097",
      "rotation": [
        3.611118645726067e-35,
        -3.469446951953614e-18,
        1.0408340855860843e-17,
        1.0
      ],
      "translation": [
        0.0,
        0.023170145228505135,
        0.0
      ]
    },
    {
      "children": [
        94
      ],
      "name": "Bip001_R_Finger4_059",
      "rotation": [
        -0.16966816782951355,
        0.15706315636634827,
        0.2242261916399002,
        0.9467135071754456
      ],
      "scale": [
        0.9999999403953552,
        0.9999997615814209,
        0.9999998211860657
      ],
      "translation": [
        -0.0022319117560982704,
        0.06952684372663498,
        -0.031248193234205246
      ]
    },
    {
      "children": [
        95
      ],
      "name": "Bip001_R_Finger41_060",
      "rotation": [
        0.004999213386327028,
        -0.0002641842875164002,
        0.1443624496459961,
        0.9895123243331909
      ],
      "scale": [
        0.9999998807907104,
        0.9999998807907104,
        0.9999999403953552
      ],
      "translation": [
        -2.452725311741233e-08,
        0.027370881289243698,
        1.805165084078908e-08
      ]
    },
    {
      "children": [
        96
      ],
      "name": "Bip001_R_Finger42_061",
      "rotation": [
        -1.3355239047996292e-07,
        4.978296885838063e-08,
        0.23165544867515564,
        0.9727979302406311
      ],
      "scale": [
        1.0,
        1.0,
        1.0000001192092896
      ],
      "translation": [
        -3.455352270975709e-08,
        0.016523636877536774,
        1.1568772606551647e-08
      ]
    },
    {
      "name": "Bip001_R_Finger42_end_098",
      "rotation": [
        6.938893903907228e-18,
        1.0833355937178202e-34,
        1.5612511283791264e-17,
        1.0
      ],
      "translation": [
        5.551115123125783e-17,
        0.01843707077205181,
        3.469446951953614e-18
      ]
    },
    {
      "children": [
        98
      ],
      "name": "Bip001_L_Thigh_062",
      "rotation": [
        0.7107229232788086,
        0.7033911943435669,
        -0.008844321593642235,
        -0.005959398578852415
      ],
      "scale": [
        1.0,
        1.0000001192092896,
        1.0
      ],
      "translation": [
        5.888765031158982e-08,
        -1.5229619521051063e-07,
        0.08151450008153915
      ]
    },
    {
      "children": [
        99
      ],
      "name": "Bip001_L_Calf_063",
      "rotation": [
        4.190274438542474e-08,
        3.007689741707509e-08,
        -0.08989419043064117,
        0.9959514141082764
      ],
      "scale": [
        1.0,
        0.9999998211860657,
        0.9999999403953552
      ],
      "translation": [
        -6.111804395914078e-10,
        0.41294893622398376,
        5.239417077973485e-08
      ]
    },
    {
      "children": [
        100
      ],
      "name": "Bip001_L_Foot_064",
      "rotation": [
        -0.010608786717057228,
        0.0010913012083619833,
        0.08472452312707901,
        0.9963473677635193
      ],
      "scale": [
        1.0,
        1.0,
        0.9999999403953552
      ],
      "translation": [
        -7.283233571797609e-09,
        0.42377686500549316,
        -7.4214767664670944e-09
      ]
    },
    {
      "children": [
        101
      ],
      "name": "Bip001_L_Toe0_065",
      "rotation": [
        2.1884686063344816e-08,
        2.3817515071300477e-08,
        0.70710688829422,
        0.7071067094802856
      ],
      "translation": [
        -0.11611194908618927,
        0.11985695362091064,
        2.0899467045865094e-08
      ]
    },
    {
      "name": "Bip001_L_Toe0_end_099",
      "rotation": [
        0.0,
        -3.440127744360206e-24,
        0.0,
        1.0
      ],
      "translation": [
        0.0,
        0.08979789912700653,
        0.0
      ]
    },
    {
      "children": [
        103
      ],
      "name": "Bip001_R_Thigh_066",
      "rotation": [
        0.7107229828834534,
        0.7033911347389221,
        0.008845082484185696,
        0.005958309397101402
      ],
      "scale": [
        0.9999999403953552,
        0.9999997615814209,
        1.0
      ],
      "translation": [
        -5.88876538643035e-08,
        7.675630797621125e-08,
        -0.08151450008153915
      ]
    },
    {
      "children": [
        104
      ],
      "name": "Bip001_R_Calf_067",
      "rotation": [
        9.765677155826324e-09,
        -1.1528139332028786e-08,
        -0.08989417552947998,
        0.9959514141082764
      ],
      "translation": [
        0.0,
        0.41294902563095093,
        -2.3295797291211784e-08
      ]
    },
    {
      "children": [
        105
      ],
      "name": "Bip001_R_Foot_068",
      "rotation": [
        0.01060869824141264,
        -0.0010913624428212643,
        0.08472452312707901,
        0.9963473677635193
      ],
      "scale": [
        1.0,
        0.9999999403953552,
        1.0
      ],
      "translation": [
        1.7807906260713935e-09,
        0.42377710342407227,
        -5.25906216353178e-08
      ]
    },
    {
      "children": [
        106
      ],
      "name": "Bip001_R_Toe0_069",
      "rotation": [
        2.2543314770473444e-08,
        -7.134064006208973e-09,
        0.7071067094802856,
        0.7071068286895752
      ],
      "translation": [
        -0.11611196398735046,
        0.11985699832439423,
        5.106156386602834e-09
      ]
    },
    {
      "name": "Bip001_R_Toe0_end_0100",
      "rotation": [
        -2.6469779601696886e-23,
        2.1666916731672728e-24,
        -1.3234889800848443e-23,
        1.0
      ],
      "translation": [
        0.0,
        0.08979788422584534,
        0.0
      ]
    },
    {
      "matrix": [
        0.9999999776561933,
        -3.081949707375506e-15,
        8.539385993501927e-14,
        0.0,
        3.0819497073510678e-15,
        0.9999999776482639,
        -1.8522540084604237e-20,
        0.0,
        -8.539385993501879e-14,
        1.8522540347930593e-20,
        0.9999999776561876,
        0.0,
        3.5119971268985067e-13,
        -2.1457677519265417e-06,
        3.8382027031891265e-14,
        1.0
      ],
      "name": "Object_107"
    },
    {
      "mesh": 0,
      "name": "Object_108",
      "skin": 0
    },
    {
      "mesh": 1,
      "name": "Object_109",
      "skin": 0
    },
    {
      "mesh": 2,
      "name": "Object_110",
      "skin": 0
    },
    {
      "mesh": 3,
      "name": "Object_111",
      "skin": 0
    },
    {
      "matrix": [
        0.9999999776561933,
        -3.081949707375506e-15,
        8.539385993501927e-14,
        0.0,
        3.0819497073510678e-15,
        0.9999999776482639,
        -1.8522540084604237e-20,
        0.0,
        -8.539385993501879e-14,
        1.8522540347930593e-20,
        0.9999999776561876,
        0.0,
        3.5119971268985067e-13,
        -2.1457677519265417e-06,
        3.8382027031891265e-14,
        1.0
      ],
      "name": "Object_112"
    },
    {
      "mesh": 4,
      "name": "Object_113",
      "skin": 0
    },
    {
      "mesh": 5,
      "name": "Object_114",
      "skin": 0
    },
    {
      "matrix": [
        0.9999999776561933,
        -3.081949707375506e-15,
        8.539385993501927e-14,
        0.0,
        3.0819497073510678e-15,
        0.9999999776482639,
        -1.8522540084604237e-20,
        0.0,
        -8.539385993501879e-14,
        1.8522540347930593e-20,
        0.9999999776561876,
        0.0,
        3.5119971268985067e-13,
        -2.1457677519265417e-06,
        3.8382027031891265e-14,
        1.0
      ],
      "name": "Object_115"
    },
    {
      "mesh": 6,
      "name": "Object_116",
      "skin": 0
    }
  ],
  "samplers": [
    {
      "magFilter": 9729,
      "minFilter": 9987,
      "wrapS": 10497,
      "wrapT": 10497
    },
    {
      "magFilter": 9728,
      "minFilter": 9986,
      "wrapS": 10497,
      "wrapT": 10497
    }
  ],
  "scene": 0,
  "scenes": [
    {
      "name": "Sketchfab_Scene",
      "nodes": [
        0
      ]
    }
  ],
  "skins": [
    {
      "inverseBindMatrices": 35,
      "joints": [
        5,
        6,
        7,
        8,
        9,
        10,
        11,
        12,
        13,
        14,
        15,
        16,
        17,
        18,
        19,
        20,
        21,
        22,
        23,
        24,
        25,
        26,
        27,
        28,
        29,
        30,
        31,
        32,
        33,
        34,
        35,
        36,
        37,
        38,
        39,
        40,
        41,
        42,
        43,
        44,
        45,
        46,
        47,
        48,
        49,
        50,
        51,
        52,
        53,
        54,
        55,
        56,
        57,
        58,
        59,
        60,
        61,
        62,
        63,
        64,
        65,
        66,
        67,
        68,
        69,
        70,
        71,
        72,
        73,
        74,
        75,
        76,
        77,
        78,
        79,
        80,
        81,
        82,
        83,
        84,
        85,
        86,
        87,
        88,
        89,
        90,
        91,
        92,
        93,
        94,
        95,
        96,
        97,
        98,
        99,
        100,
        101,
        102,
        103,
        104,
        105,
        106
      ],
      "skeleton": 5
    }
  ],
  "textures": [
    {
      "sampler": 0,
      "source": 0
    },
    {
      "sampler": 0,
      "source": 1
    },
    {
      "sampler": 0,
      "source": 2
    },
    {
      "sampler": 0,
      "source": 3
    },
    {
      "sampler": 0,
      "source": 4
    },
    {
      "sampler": 0,
      "source": 5
    },
    {
      "sampler": 1,
      "source": 6
    },
    {
      "sampler": 0,
      "source": 7
    },
    {
      "sampler": 0,
      "source": 8
    },
    {
      "sampler": 0,
      "source": 9
    }
  ]
}
